<svg width="24" height="24" viewBox="0 0 24 24" fill="none" xmlns="http://www.w3.org/2000/svg">
<rect width="24" height="24" rx="12" fill="#F44336"/>
<path d="M11.9995 16.1094C13.6636 16.1094 14.8394 15.1641 14.8472 13.8672C14.8394 12.8594 14.1323 12.0117 13.2378 11.8516V11.8047C14.0151 11.6172 14.5425 10.8867 14.5503 10.0234C14.5425 8.80078 13.4644 7.89062 11.9995 7.89062C10.519 7.89062 9.44092 8.80078 9.44873 10.0234C9.44092 10.8828 9.96826 11.6172 10.7612 11.8047V11.8516C9.85107 12.0117 9.14404 12.8594 9.15186 13.8672C9.14404 15.1641 10.3198 16.1094 11.9995 16.1094ZM11.9995 15.1211C10.9995 15.1211 10.3667 14.5898 10.3745 13.7891C10.3667 12.957 11.0542 12.3633 11.9995 12.3633C12.9292 12.3633 13.6167 12.957 13.6245 13.7891C13.6167 14.5898 12.9878 15.1211 11.9995 15.1211ZM11.9995 11.3984C11.1909 11.3984 10.6167 10.8867 10.6245 10.125C10.6167 9.375 11.1714 8.87891 11.9995 8.87891C12.812 8.87891 13.3667 9.375 13.3745 10.125C13.3667 10.8867 12.7964 11.3984 11.9995 11.3984Z" fill="white"/>
</svg>
