<svg width="85" height="16" viewBox="0 0 85 16" fill="none" xmlns="http://www.w3.org/2000/svg">
<path d="M8.91669 0L10.7976 5.41115L16.5251 5.52786L11.9601 8.98885L13.619 14.4721L8.91669 11.2L4.21441 14.4721L5.87331 8.98885L1.30823 5.52786L7.03577 5.41115L8.91669 0Z" fill="#F5BD23"/>
<path d="M25.9167 0L27.7976 5.41115L33.5251 5.52786L28.9601 8.98885L30.619 14.4721L25.9167 11.2L21.2144 14.4721L22.8733 8.98885L18.3082 5.52786L24.0358 5.41115L25.9167 0Z" fill="#F5BD23"/>
<path d="M42.9167 0L44.7976 5.41115L50.5251 5.52786L45.9601 8.98885L47.619 14.4721L42.9167 11.2L38.2144 14.4721L39.8733 8.98885L35.3082 5.52786L41.0358 5.41115L42.9167 0Z" fill="#F5BD23"/>
<path d="M59.9167 0L61.7976 5.41115L67.5251 5.52786L62.9601 8.98885L64.619 14.4721L59.9167 11.2L55.2144 14.4721L56.8733 8.98885L52.3082 5.52786L58.0358 5.41115L59.9167 0Z" fill="#F5BD23"/>
<path d="M76.9167 0L78.7976 5.41115L84.5251 5.52786L79.9601 8.98885L81.619 14.4721L76.9167 11.2L72.2144 14.4721L73.8733 8.98885L69.3082 5.52786L75.0358 5.41115L76.9167 0Z" fill="#F5BD23"/>
</svg>
